<?xml version="1.0" encoding="UTF-8" standalone="no"?>
<!-- Created with Inkscape (http://www.inkscape.org/) -->

<svg
   xmlns:dc="http://purl.org/dc/elements/1.1/"
   xmlns:cc="http://creativecommons.org/ns#"
   xmlns:rdf="http://www.w3.org/1999/02/22-rdf-syntax-ns#"
   xmlns:svg="http://www.w3.org/2000/svg"
   xmlns="http://www.w3.org/2000/svg"
   xmlns:sodipodi="http://sodipodi.sourceforge.net/DTD/sodipodi-0.dtd"
   xmlns:inkscape="http://www.inkscape.org/namespaces/inkscape"
   version="1.1"
   id="svg3774"
   xml:space="preserve"
   width="800"
   height="800"
   viewBox="0 0 800 800"
   sodipodi:docname="random-lines-abstract-art-svg.svg"
   inkscape:version="0.92.4 (5da689c313, 2019-01-14)"><metadata
     id="metadata3780"><rdf:RDF><cc:Work
         rdf:about=""><dc:format>image/svg+xml</dc:format><dc:type
           rdf:resource="http://purl.org/dc/dcmitype/StillImage" /><dc:title></dc:title></cc:Work></rdf:RDF></metadata><defs
     id="defs3778"><clipPath
       clipPathUnits="userSpaceOnUse"
       id="clipPath3790"><path
         d="M 0,600 H 600 V 0 H 0 Z"
         id="path3788"
         inkscape:connector-curvature="0" /></clipPath></defs><sodipodi:namedview
     pagecolor="#ffffff"
     bordercolor="#666666"
     borderopacity="1"
     objecttolerance="10"
     gridtolerance="10"
     guidetolerance="10"
     inkscape:pageopacity="0"
     inkscape:pageshadow="2"
     inkscape:window-width="1920"
     inkscape:window-height="1018"
     id="namedview3776"
     showgrid="false"
     inkscape:zoom="0.77540248"
     inkscape:cx="391.52542"
     inkscape:cy="381.35593"
     inkscape:window-x="-8"
     inkscape:window-y="-8"
     inkscape:window-maximized="1"
     inkscape:current-layer="g3782" /><g
     id="g3782"
     inkscape:groupmode="layer"
     inkscape:label="abstract-1010-publicdomainvectors.org"
     transform="matrix(1.3333333,0,0,-1.3333333,0,800)"><g
       id="g3784"><g
         id="g3786"
         clip-path="url(#clipPath3790)"><path
           d="m 346.823,600 c 5.1,-10.602 10.576,-22.067 16.387,-34.481 21.785,-46.568 47.444,-103.414 68.933,-169.205 22.313,-68.341 34.44,-131.509 44.232,-182.174 8.149,-42.279 14.433,-74.027 21.601,-96.702 15.847,-49.865 53.608,-52.705 97.787,-25.42 1.415,0.878 2.828,1.784 4.237,2.713 v -1.627 c -0.458,-0.288 -0.917,-0.575 -1.375,-0.858 -44.348,-27.213 -82.045,-24.492 -97.403,25.051 -6.911,22.545 -12.903,54.178 -20.856,96.37 -9.518,50.627 -21.572,113.821 -43.932,182.329 -21.624,66.155 -47.674,123.416 -70.043,170.217 -5.807,12.151 -11.302,23.386 -16.437,33.787 z"
           style="fill:#f57e13;fill-opacity:1;fill-rule:nonzero;stroke:none"
           id="path3792"
           inkscape:connector-curvature="0" /><path
           d="m 372.31,600 c 5.239,-9.114 10.72,-18.877 16.392,-29.358 26.279,-48.496 54.982,-108.587 77.132,-177.175 22.444,-69.538 33.407,-132.863 41.192,-182.971 6.446,-41.464 10.532,-72.163 15.773,-93.722 10.092,-41.031 39.972,-48.96 77.201,-34.12 v -1.186 c -36.187,-13.214 -65.032,-4.588 -74.562,35.285 -5.057,21.439 -8.877,52.016 -15.116,93.377 -7.543,50.023 -18.341,113.346 -40.772,182.995 -22.2,68.868 -51.208,129.318 -77.964,178.036 -5.65,10.285 -11.117,19.876 -16.357,28.839 z"
           style="fill:#ed1c24;fill-opacity:1;fill-rule:nonzero;stroke:none"
           id="path3794"
           inkscape:connector-curvature="0" /><path
           d="m 395.774,600 c 5.169,-8.001 10.493,-16.505 15.926,-25.567 30.094,-50.223 61.042,-113.124 83.321,-183.804 22.144,-70.275 31.63,-133.464 37.4,-182.782 4.726,-40.587 6.809,-70.318 10.692,-90.986 6.105,-32.253 28.083,-44.83 56.887,-41.999 v -0.563 c -27.827,-1.645 -48.934,11.307 -54.704,42.592 -3.726,20.595 -5.594,50.221 -10.143,90.701 -5.524,49.219 -14.827,112.377 -36.916,182.711 -22.249,70.893 -53.436,134.096 -83.95,184.508 -5.402,8.921 -10.702,17.3 -15.853,25.189 z"
           style="fill:#cbab17;fill-opacity:1;fill-rule:nonzero;stroke:none"
           id="path3796"
           inkscape:connector-curvature="0" /><path
           d="m 416.953,600 c 5.026,-7.198 10.151,-14.801 15.338,-22.854 33.31,-51.75 65.858,-117.051 87.874,-189.266 21.506,-70.665 29.399,-133.481 33.271,-181.896 3.167,-39.735 3.617,-68.675 6.768,-88.811 C 564.14,92.502 579.213,78.13 600,72.887 v 0.197 c -19.846,5.911 -34.152,20.292 -37.912,44.114 -3.112,20.09 -3.4,48.948 -6.405,88.587 -3.656,48.299 -11.32,111.069 -32.753,181.758 -21.942,72.373 -54.644,137.939 -88.305,189.857 -5.161,7.959 -10.267,15.478 -15.274,22.6 z"
           style="fill:#f6a32c;fill-opacity:1;fill-rule:nonzero;stroke:none"
           id="path3798"
           inkscape:connector-curvature="0" /><path
           d="m 435.911,600 c 4.896,-6.657 9.857,-13.655 14.851,-21.032 35.933,-53.142 69.593,-120.449 91.011,-193.764 20.68,-70.78 26.848,-133.072 29.092,-180.551 1.831,-38.991 1.17,-67.416 4.398,-87.392 C 578.14,99.643 587.129,86.493 600,77.652 v 1.091 c -11.919,8.959 -20.231,21.754 -23.021,38.496 -3.081,18.774 -2.381,45.485 -3.643,82.034 -1.509,44.17 -6.143,102.547 -24.161,170.314 -20.616,77.492 -55.435,149.374 -93.374,205.695 -5.9,8.749 -11.758,16.967 -17.518,24.718 z"
           style="fill:#5e7035;fill-opacity:1;fill-rule:nonzero;stroke:none"
           id="path3800"
           inkscape:connector-curvature="0" /><path
           d="m 452.999,600 c 5.724,-7.49 11.521,-15.401 17.333,-23.796 39.74,-57.476 74.995,-130.834 94.765,-208.865 17.081,-67.597 20.324,-125.36 20.887,-168.796 0.48,-36.104 -0.477,-62.746 3.361,-81.782 1.946,-9.531 5.61,-17.971 10.655,-25.319 v 2.61 c -4.151,6.711 -7.225,14.243 -8.993,22.594 -4.002,19.077 -3.082,45.731 -3.453,81.787 -0.481,43.353 -3.513,101.04 -20.459,168.613 -19.633,78.09 -54.957,151.62 -94.907,209.251 -5.803,8.36 -11.591,16.24 -17.309,23.703 z"
           style="fill:#4e7840;fill-opacity:1;fill-rule:nonzero;stroke:none"
           id="path3802"
           inkscape:connector-curvature="0" /><path
           d="m 467.975,600 c 5.699,-7.333 11.45,-15.049 17.197,-23.209 41.329,-58.712 76.827,-133.446 95.534,-211.827 16.032,-67.286 17.775,-124.348 17.775,-167.114 -0.01,-25.35 -0.25,-46.269 1.519,-63.306 v 28.542 c -0.183,10.518 -0.13,22.063 -0.115,34.698 0.014,42.696 -1.543,99.673 -17.473,166.916 -18.591,78.403 -54.098,153.279 -95.586,212.139 -5.74,8.14 -11.487,15.84 -17.182,23.161 z"
           style="fill:#7ac72a;fill-opacity:1;fill-rule:nonzero;stroke:none"
           id="path3804"
           inkscape:connector-curvature="0" /><path
           d="m 481.404,600 c 5.682,-7.281 11.402,-14.912 17.103,-22.953 42.492,-59.9 77.921,-135.753 95.607,-214.264 2.279,-10.142 4.224,-20.042 5.886,-29.687 v 7.803 c -1.308,7.081 -2.772,14.294 -4.411,21.635 -17.568,78.514 -53,154.474 -95.584,214.531 -5.696,8.031 -11.413,15.656 -17.091,22.935 z"
           style="fill:#654f2d;fill-opacity:1;fill-rule:nonzero;stroke:none"
           id="path3806"
           inkscape:connector-curvature="0" /><path
           d="m 493.616,600 c 5.649,-7.292 11.324,-14.901 16.972,-22.886 C 549.335,522.293 581.66,454.926 600,384.985 v 4.712 c -18.482,68.179 -50.161,133.759 -88.048,187.418 -5.639,7.98 -11.308,15.589 -16.948,22.885 z"
           style="fill:#bc61ad;fill-opacity:1;fill-rule:nonzero;stroke:none"
           id="path3808"
           inkscape:connector-curvature="0" /><path
           d="m 504.929,600 c 5.564,-7.32 11.15,-14.922 16.7,-22.859 C 553.93,530.932 581.421,476.453 600,419.446 v 3.461 c -18.51,55.699 -45.474,108.911 -77.105,154.237 -5.534,7.931 -11.102,15.532 -16.651,22.856 z"
           style="fill:#961a1f;fill-opacity:1;fill-rule:nonzero;stroke:none"
           id="path3810"
           inkscape:connector-curvature="0" /><path
           d="m 515.672,600 c 5.413,-7.332 10.843,-14.902 16.235,-22.763 27.032,-39.413 50.48,-84.319 68.093,-131.365 v 2.774 c -17.458,46.001 -40.461,89.917 -66.914,128.612 -5.369,7.848 -10.775,15.412 -16.165,22.742 z"
           style="fill:#da1779;fill-opacity:1;fill-rule:nonzero;stroke:none"
           id="path3812"
           inkscape:connector-curvature="0" /><path
           d="m 526.429,600 c 5.164,-7.28 10.342,-14.753 15.487,-22.462 C 564.237,544.09 583.995,507.112 600,468.48 v -2.463 c -16.214,39.538 -36.381,77.366 -59.221,111.472 -5.178,7.731 -10.391,15.221 -15.591,22.511 z"
           style="fill:#00adef;fill-opacity:1;fill-rule:nonzero;stroke:none"
           id="path3814"
           inkscape:connector-curvature="0" /><path
           d="m 536.8,600 c 4.831,-7.131 9.674,-14.41 14.492,-21.868 18.207,-28.189 34.64,-58.58 48.708,-90.164 v -2.242 c -14.315,32.381 -31.139,63.518 -49.817,92.318 -4.863,7.493 -9.752,14.801 -14.626,21.956 z"
           style="fill:#ec008c;fill-opacity:1;fill-rule:nonzero;stroke:none"
           id="path3816"
           inkscape:connector-curvature="0" /><path
           d="m 547.304,600 c 4.402,-6.85 8.82,-13.801 13.222,-20.878 C 574.904,555.971 588.15,531.547 600,506.34 v -2.135 c -12.126,25.933 -25.747,51.038 -40.572,74.773 -4.455,7.131 -8.927,14.13 -13.385,21.022 z"
           style="fill:#bc61ad;fill-opacity:1;fill-rule:nonzero;stroke:none"
           id="path3818"
           inkscape:connector-curvature="0" /><path
           d="m 558.145,600 c 3.887,-6.405 7.79,-12.875 11.687,-19.422 10.727,-18.022 20.814,-36.694 30.168,-55.815 v -2.217 c -9.665,19.838 -20.131,39.189 -31.286,57.829 -3.961,6.621 -7.928,13.157 -11.88,19.625 z"
           style="fill:#f68712;fill-opacity:1;fill-rule:nonzero;stroke:none"
           id="path3820"
           inkscape:connector-curvature="0" /><path
           d="m 569.43,600 c 3.3,-5.771 6.616,-11.576 9.934,-17.423 7.171,-12.639 14.057,-25.54 20.636,-38.642 v -2.36 c -6.927,13.828 -14.202,27.429 -21.795,40.733 -3.392,5.94 -6.78,11.835 -10.155,17.692 z"
           style="fill:#bdbcbc;fill-opacity:1;fill-rule:nonzero;stroke:none"
           id="path3822"
           inkscape:connector-curvature="0" /><path
           d="m 577.155,600 c 7.586,-15.232 15.252,-30.545 22.845,-45.973 v -2.777 c -8.094,16.375 -16.284,32.61 -24.382,48.75 z"
           style="fill:#4e7840;fill-opacity:1;fill-rule:nonzero;stroke:none"
           id="path3824"
           inkscape:connector-curvature="0" /><path
           d="m 590.415,600 c 3.185,-6.811 6.383,-13.629 9.585,-20.458 v -3.281 c -3.743,7.927 -7.483,15.839 -11.205,23.739 z"
           style="fill:#ea442f;fill-opacity:1;fill-rule:nonzero;stroke:none"
           id="path3826"
           inkscape:connector-curvature="0" /><path
           d="m 600,280.542 c -10.206,-2.157 -21.428,-1.736 -33.566,1.669 -22.469,6.402 -50.723,19.632 -87.06,40.131 -44.933,25.338 -100.67,62.954 -171.738,100.416 -68.662,36.156 -130.294,62.466 -178.688,86.135 -37.507,18.364 -66.07,33.474 -87.058,46.549 -0.262,-0.828 -0.504,-1.648 -0.777,-2.483 20.727,-13.452 48.933,-28.954 85.953,-47.612 47.684,-24.016 108.46,-50.517 176.616,-86.432 70.924,-37.399 126.692,-74.851 171.835,-99.932 36.578,-20.323 65.155,-33.376 87.96,-39.643 13.309,-3.624 25.526,-3.772 36.523,-0.957 z"
           style="fill:#f57e13;fill-opacity:1;fill-rule:nonzero;stroke:none"
           id="path3828"
           inkscape:connector-curvature="0" /><path
           d="m 600,301.199 c -3.891,0.645 -7.882,1.709 -11.969,3.212 -19.887,7.379 -45.399,21.983 -79.684,43.7 -42.934,27.226 -97.997,66.132 -169.837,104.149 -71.864,38.041 -139.776,63.571 -193.865,84.506 -41.52,16.071 -73.106,27.916 -96.249,38.08 -0.26,-0.729 -0.487,-1.448 -0.774,-2.198 22.876,-10.511 54.11,-22.723 95.157,-39.052 53.441,-21.243 120.667,-46.839 192.244,-84.652 71.786,-37.955 126.952,-76.728 170.153,-103.728 34.532,-21.586 60.377,-36.012 80.546,-43.288 4.904,-1.755 9.667,-2.892 14.278,-3.45 z"
           style="fill:#ed1c24;fill-opacity:1;fill-rule:nonzero;stroke:none"
           id="path3830"
           inkscape:connector-curvature="0" /><path
           d="m 600,325.951 c -17.041,8.77 -38.711,23.749 -67.979,44.481 -40.644,28.824 -94.531,68.817 -166.436,107.422 -73.736,39.54 -146.465,65.213 -205.631,83.678 -45.322,14.135 -79.888,22.803 -105.179,30.51 -0.242,-0.643 -0.499,-1.291 -0.749,-1.949 25.039,-7.957 59.248,-17.01 104.127,-31.364 58.59,-18.77 130.823,-44.368 204.385,-83.751 71.939,-38.52 125.979,-78.406 166.905,-107.049 30.567,-21.393 53.018,-36.556 70.557,-45.067 z"
           style="fill:#cbab17;fill-opacity:1;fill-rule:nonzero;stroke:none"
           id="path3832"
           inkscape:connector-curvature="0" /><path
           d="m 87.62,600 c 23.226,-4.634 51.47,-10.275 85.232,-19.16 63.041,-16.593 139.083,-42.687 213.666,-83.416 71.544,-39.113 124.074,-80.004 162.635,-109.978 20.824,-16.182 37.269,-29.172 50.847,-38.607 v 3.059 c -13.131,9.384 -28.924,22.055 -48.749,37.658 -38.286,30.107 -90.598,71.141 -162.069,110.32 -74.645,40.895 -151.077,67.066 -214.601,83.431 -29.213,7.521 -54.34,12.59 -75.694,16.693 z"
           style="fill:#f6a32c;fill-opacity:1;fill-rule:nonzero;stroke:none"
           id="path3834"
           inkscape:connector-curvature="0" /><path
           d="m 187.754,600 c 66.578,-14.885 145.095,-41.592 219.614,-83.341 70.758,-39.683 121.5,-81.541 157.756,-112.577 13.479,-11.536 24.909,-21.585 34.876,-29.958 v 3.205 c -8.456,7.332 -17.993,15.899 -28.979,25.572 C 537.93,432.042 491.518,471.69 425.668,510.688 350.957,554.942 270.276,583.972 200.807,600 Z"
           style="fill:#5e7035;fill-opacity:1;fill-rule:nonzero;stroke:none"
           id="path3836"
           inkscape:connector-curvature="0" /><path
           d="m 271.133,600 c 56.157,-16.843 115.27,-41.807 170.027,-75.169 64.802,-39.467 109.5,-79.88 140.936,-109.598 6.455,-6.103 12.391,-11.786 17.904,-17.012 v 2.672 c -5.129,4.906 -10.62,10.201 -16.547,15.855 -31.229,29.786 -75.695,70.308 -140.346,109.85 -52.651,32.193 -109.464,56.607 -163.88,73.402 z"
           style="fill:#4e7840;fill-opacity:1;fill-rule:nonzero;stroke:none"
           id="path3838"
           inkscape:connector-curvature="0" /><path
           d="m 330.885,600 c 42.757,-15.787 85.609,-36.306 125.492,-61.399 63.465,-39.967 106.244,-81.141 136.217,-111.248 2.543,-2.556 5.01,-5.04 7.406,-7.448 v 2.467 c -2.039,2.059 -4.127,4.171 -6.27,6.335 C 563.904,458.85 521.343,500.092 458.034,540.103 419.576,564.401 378.28,584.418 336.923,600 Z"
           style="fill:#7ac72a;fill-opacity:1;fill-rule:nonzero;stroke:none"
           id="path3840"
           inkscape:connector-curvature="0" /><path
           d="m 376.043,600 c 32.199,-13.879 63.766,-30.507 93.351,-49.732 C 530.386,510.601 571.021,469.591 600,439.531 v 2.212 c -28.845,29.948 -69.04,70.539 -129.185,109.799 -28.573,18.628 -59.031,34.83 -90.149,48.458 z"
           style="fill:#654f2d;fill-opacity:1;fill-rule:nonzero;stroke:none"
           id="path3842"
           inkscape:connector-curvature="0" /><path
           d="m 411.032,600 c 24.063,-11.724 47.438,-25.031 69.526,-39.825 54.285,-36.384 91.56,-73.942 119.442,-102.91 v 2 c -27.766,28.804 -64.664,65.974 -118.213,101.987 -21.338,14.336 -43.896,27.282 -67.131,38.748 z"
           style="fill:#bc61ad;fill-opacity:1;fill-rule:nonzero;stroke:none"
           id="path3844"
           inkscape:connector-curvature="0" /><path
           d="m 438.68,600 c 17.798,-9.579 35.052,-20.047 51.506,-31.351 48.526,-33.378 82.901,-67.757 109.814,-95.26 v 1.832 c -26.798,27.309 -60.856,61.316 -108.746,94.358 -15.871,10.937 -32.5,21.094 -49.649,30.421 z"
           style="fill:#961a1f;fill-opacity:1;fill-rule:nonzero;stroke:none"
           id="path3846"
           inkscape:connector-curvature="0" /><path
           d="m 461.104,600 c 12.899,-7.534 25.432,-15.544 37.496,-24.004 43.49,-30.542 75.392,-61.859 101.4,-87.661 v 1.698 c -25.907,25.589 -57.53,56.567 -100.465,86.783 -11.595,8.152 -23.63,15.888 -36.01,23.184 z"
           style="fill:#da1779;fill-opacity:1;fill-rule:nonzero;stroke:none"
           id="path3848"
           inkscape:connector-curvature="0" /><path
           d="m 480.416,600 c 8.851,-5.538 17.493,-11.302 25.894,-17.281 C 545.2,555 574.884,526.734 600,502.862 v -1.646 c -25.219,24.104 -55.142,52.722 -94.545,80.758 -8.784,6.249 -17.833,12.261 -27.105,18.026 z"
           style="fill:#00adef;fill-opacity:1;fill-rule:nonzero;stroke:none"
           id="path3850"
           inkscape:connector-curvature="0" /><path
           d="m 496.691,600 c 5.58,-3.683 11.068,-7.455 16.452,-11.312 34.873,-25.014 62.623,-50.358 86.857,-72.222 v -1.613 c -24.344,22.111 -52.314,47.808 -87.655,73.143 -5.723,4.099 -11.561,8.102 -17.504,12.004 z"
           style="fill:#ec008c;fill-opacity:1;fill-rule:nonzero;stroke:none"
           id="path3852"
           inkscape:connector-curvature="0" /><path
           d="m 511.586,600 c 2.693,-1.851 5.361,-3.721 8.007,-5.611 31.198,-22.327 57.132,-44.763 80.407,-64.512 v -1.59 c -23.394,20.008 -49.539,42.792 -81.171,65.426 -2.962,2.121 -5.955,4.217 -8.977,6.287 z"
           style="fill:#bc61ad;fill-opacity:1;fill-rule:nonzero;stroke:none"
           id="path3854"
           inkscape:connector-curvature="0" /><path
           d="M 525.992,600 C 553.771,580.376 577.856,560.818 600,543.274 v -1.624 c -22.31,17.825 -46.639,37.747 -74.841,57.719 -0.297,0.211 -0.595,0.421 -0.892,0.631 z"
           style="fill:#f68712;fill-opacity:1;fill-rule:nonzero;stroke:none"
           id="path3856"
           inkscape:connector-curvature="0" /><path
           d="m 540.79,600 c 21.291,-14.992 40.778,-29.698 59.21,-43.249 v -1.615 C 581.082,569.169 561.018,584.448 538.966,600 Z"
           style="fill:#bdbcbc;fill-opacity:1;fill-rule:nonzero;stroke:none"
           id="path3858"
           inkscape:connector-curvature="0" /><path
           d="m 556.97,600 c 14.944,-10.201 29.213,-20.134 43.03,-29.527 v -1.667 c -14.429,9.902 -29.366,20.407 -45.079,31.194 z"
           style="fill:#4e7840;fill-opacity:1;fill-rule:nonzero;stroke:none"
           id="path3860"
           inkscape:connector-curvature="0" /><path
           d="m 575.582,600 c 8.269,-5.314 16.398,-10.509 24.418,-15.547 v -1.689 c -8.785,5.571 -17.708,11.334 -26.809,17.236 z"
           style="fill:#ea442f;fill-opacity:1;fill-rule:nonzero;stroke:none"
           id="path3862"
           inkscape:connector-curvature="0" /><path
           d="m 600,600 v -1.611 c -0.991,0.535 -1.985,1.071 -2.977,1.611 z"
           style="fill:#d39c66;fill-opacity:1;fill-rule:nonzero;stroke:none"
           id="path3864"
           inkscape:connector-curvature="0" /><path
           d="m 525.785,600 c 14.258,-23.473 21.232,-46.995 21.309,-68.15 0.068,-26.868 -12.284,-53.454 -41.452,-75.309 -24.04,-17.908 -58.333,-35.88 -105.001,-54.653 C 343.071,378.763 266.942,354.857 186.331,328.236 120.713,306.55 65.871,291.924 21.337,283.398 13.857,281.966 6.711,280.717 -0.117,279.644 v -3.723 c 7.272,1.003 14.904,2.203 22.913,3.611 44.359,7.809 98.817,21.553 163.729,42.326 79.933,25.571 155.786,49.974 213.256,73.538 46.722,19.159 81.175,37.558 105.403,55.898 29.564,22.396 42.286,49.511 42.419,76.777 0.069,22.379 -7.491,47.279 -23.035,71.929 z"
           style="fill:#f57e13;fill-opacity:1;fill-rule:nonzero;stroke:none"
           id="path3866"
           inkscape:connector-curvature="0" /><path
           d="M 534.101,600 C 550.546,559.259 544.572,520.143 507.811,496.149 485.408,481.66 452.472,467.324 406.477,451.734 348.613,432.116 270.883,412.277 186.61,380.116 114.551,352.596 56.489,329.993 10.431,315.213 6.83,314.058 3.315,312.95 -0.117,311.886 v -3.927 c 3.808,1.112 7.72,2.28 11.737,3.505 45.872,14.019 103.55,35.638 174.827,62.64 83.969,31.784 161.593,52.027 219.46,72.063 46.093,15.976 79.21,30.716 101.779,45.639 38.074,25.258 43.584,66.205 25.592,108.194 z"
           style="fill:#ed1c24;fill-opacity:1;fill-rule:nonzero;stroke:none"
           id="path3868"
           inkscape:connector-curvature="0" /><path
           d="m 539.091,600 c 5.263,-30.256 -3.89,-56.378 -31.314,-71.259 C 486.794,517.445 455.151,506.798 410.129,494.222 352.633,478.195 274.765,460.898 188.727,427.427 110.742,397.057 49.305,366.86 1.683,345.702 c -0.603,-0.267 -1.204,-0.534 -1.8,-0.799 v -3.936 c 0.906,0.389 1.819,0.782 2.738,1.177 47.434,20.408 108.454,49.771 185.811,79.909 85.89,33.425 163.796,50.978 221.357,67.453 45.15,12.929 76.95,23.994 98.072,35.674 28.437,15.795 37.294,43.309 30.855,74.82 z"
           style="fill:#cbab17;fill-opacity:1;fill-rule:nonzero;stroke:none"
           id="path3870"
           inkscape:connector-curvature="0" /><path
           d="M 539.39,600 C 536.745,580.051 526.168,564.107 506.439,555.5 486.583,546.944 456.188,539.621 412.293,529.912 355.688,517.372 278.392,502.317 191.561,469.16 111.902,438.705 48.456,404.004 -0.117,377.132 v -3.79 c 48.46,26.262 111.712,60.568 191.308,91.111 86.774,33.236 164.153,48.587 220.887,61.539 44.035,10.044 74.594,17.694 94.561,26.576 20.601,9.23 31.134,26.273 33.038,47.432 z"
           style="fill:#f6a32c;fill-opacity:1;fill-rule:nonzero;stroke:none"
           id="path3872"
           inkscape:connector-curvature="0" /><path
           d="M 532.443,600 C 526.249,589.813 517.005,582.044 504.521,577.692 486.658,571.517 459.167,567.54 419.276,561.287 368.017,553.222 296.885,542.338 213.294,513.61 125.078,483.292 53.27,442.284 -0.117,408.064 v -4.111 c 49.457,30.958 114.43,67.873 194.361,97.557 86.998,32.272 163.465,45.347 219.033,54.888 42.873,7.405 72.345,12.057 91.482,18.841 13.387,4.779 22.976,13.438 29.026,24.761 z"
           style="fill:#5e7035;fill-opacity:1;fill-rule:nonzero;stroke:none"
           id="path3874"
           inkscape:connector-curvature="0" /><path
           d="m 511.476,600 c -2.792,-1.362 -5.752,-2.514 -8.878,-3.44 -17.53,-5.149 -44.298,-6.934 -83.18,-10.966 -49.94,-5.175 -119.885,-13.658 -202.961,-40.77 C 128.414,516.044 54.599,473.836 -0.117,435.712 v -3.135 c 54.556,37.698 128.136,79.797 216.204,108.759 83.139,27.335 153.226,36.095 203.323,41.612 38.996,4.284 65.838,6.292 83.401,11.493 4.603,1.381 8.834,3.252 12.693,5.559 z"
           style="fill:#4e7840;fill-opacity:1;fill-rule:nonzero;stroke:none"
           id="path3876"
           inkscape:connector-curvature="0" /><path
           d="M 352.746,600 C 314.286,595.249 269.378,586.979 219.447,571.588 131.594,544.459 55.949,501.604 -0.117,460.4 v -2.781 c 55.91,40.861 131.345,83.657 219.226,110.989 59.941,18.604 112.693,27.012 155.77,31.392 z"
           style="fill:#7ac72a;fill-opacity:1;fill-rule:nonzero;stroke:none"
           id="path3878"
           inkscape:connector-curvature="0" /><path
           d="m 242.597,600 c -6.674,-1.717 -13.451,-3.567 -20.329,-5.558 C 134.579,569.002 57.293,525.842 -0.117,482.21 v -2.453 c 57.254,43.367 134.345,86.519 222.059,112.141 10.298,3.006 20.372,5.695 30.21,8.102 z"
           style="fill:#654f2d;fill-opacity:1;fill-rule:nonzero;stroke:none"
           id="path3880"
           inkscape:connector-curvature="0" /><path
           d="M 180.583,600 C 110.879,575.2 48.519,539.066 -0.117,501.346 v -2.149 c 49.983,38.69 114.52,75.859 186.772,100.803 z"
           style="fill:#bc61ad;fill-opacity:1;fill-rule:nonzero;stroke:none"
           id="path3882"
           inkscape:connector-curvature="0" /><path
           d="M 138.333,600 C 86.098,577.444 38.799,548.603 -0.117,518.125 v -1.892 C 39.839,547.507 88.691,577.116 142.719,600 Z"
           style="fill:#961a1f;fill-opacity:1;fill-rule:nonzero;stroke:none"
           id="path3884"
           inkscape:connector-curvature="0" /><path
           d="M 106.974,600 C 67.386,580.484 31.086,557.391 -0.117,532.934 v -1.672 C 31.934,556.386 69.399,580.104 110.319,600 Z"
           style="fill:#da1779;fill-opacity:1;fill-rule:nonzero;stroke:none"
           id="path3886"
           inkscape:connector-curvature="0" /><path
           d="M 87.087,600 C 55.349,583.056 25.931,563.828 -0.117,543.523 v 1.516 C 25.219,564.756 53.71,583.443 84.398,600 Z"
           style="fill:#00adef;fill-opacity:1;fill-rule:nonzero;stroke:none"
           id="path3888"
           inkscape:connector-curvature="0" /><path
           d="M 66.205,600 C 42.52,586.33 20.252,571.41 -0.117,555.765 v 1.39 C 19.624,572.28 41.127,586.719 63.958,600 Z"
           style="fill:#ec008c;fill-opacity:1;fill-rule:nonzero;stroke:none"
           id="path3890"
           inkscape:connector-curvature="0" /><path
           d="M 48.43,600 C 31.408,589.589 15.162,578.551 -0.117,567.086 v 1.309 C 14.571,579.386 30.144,589.979 46.432,600 Z"
           style="fill:#bc61ad;fill-opacity:1;fill-rule:nonzero;stroke:none"
           id="path3892"
           inkscape:connector-curvature="0" /><path
           d="M 32.381,600 C 21.184,592.858 10.332,585.456 -0.117,577.851 v 1.256 c 9.886,7.161 20.126,14.141 30.674,20.893 z"
           style="fill:#f68712;fill-opacity:1;fill-rule:nonzero;stroke:none"
           id="path3894"
           inkscape:connector-curvature="0" /><path
           d="M 17.097,600 C 11.262,596.177 5.522,592.289 -0.117,588.343 v 1.253 c 5.049,3.516 10.179,6.986 15.383,10.404 z"
           style="fill:#bdbcbc;fill-opacity:1;fill-rule:nonzero;stroke:none"
           id="path3896"
           inkscape:connector-curvature="0" /><path
           d="m 1.632,600 c -0.583,-0.388 -1.167,-0.777 -1.749,-1.166 V 600 Z"
           style="fill:#4e7840;fill-opacity:1;fill-rule:nonzero;stroke:none"
           id="path3898"
           inkscape:connector-curvature="0" /><path
           d="m 323.583,600 c 2.375,-16.418 1.849,-35.33 -2.132,-56.742 -7.45,-39.431 -23.416,-88.519 -49.136,-149.591 C 241.382,320.215 210.293,247.66 179.959,188.93 155.841,142.278 133.466,105.974 113.074,78.935 97.48,58.278 82.933,43.261 69.344,32.164 c 0.816,-0.269 1.627,-0.518 2.452,-0.778 13.862,10.893 28.733,25.667 44.639,46.002 20.746,26.544 43.447,62.152 67.787,107.865 30.571,57.419 61.755,128.401 92.322,201.972 25.493,61.391 41.223,110.966 48.475,150.937 4.245,23.532 4.46,44.15 1.335,61.838 z"
           style="fill:#f57e13;fill-opacity:1;fill-rule:nonzero;stroke:none"
           id="path3900"
           inkscape:connector-curvature="0" /><path
           d="m 297.457,600 c -0.77,-6.118 -1.986,-12.558 -3.679,-19.33 C 284.962,545.701 266.999,500.896 239.966,442.73 206.962,371.729 173.946,291.115 145.329,221.247 122.847,166.326 103.225,123.875 85.928,92.441 72.987,68.91 61.212,51.636 49.797,38.724 c 0.749,-0.266 1.481,-0.512 2.25,-0.785 11.661,12.685 23.772,29.671 37.036,52.839 17.681,30.888 37.643,72.576 60.282,126.484 28.795,68.576 61.422,148.677 94.217,220.033 26.912,58.537 44.643,103.868 53.293,139.367 1.998,8.251 3.314,16.026 4.001,23.338 z"
           style="fill:#ed1c24;fill-opacity:1;fill-rule:nonzero;stroke:none"
           id="path3902"
           inkscape:connector-curvature="0" /><path
           d="M 266.62,600 C 255.741,570.657 237.363,533.07 212.295,483.928 177.75,416.222 141.01,334.171 113.334,255.037 91.27,191.979 74.67,142.837 60.658,106.692 50.302,79.987 41.386,60.177 31.818,45.236 c 0.685,-0.255 1.375,-0.507 2.074,-0.768 9.764,14.691 19.028,34.178 29.684,60.49 14.402,35.578 31.384,83.897 53.409,146.031 27.74,78.199 64.036,160.265 98.394,228.398 25.912,51.332 44.523,90.348 55.072,120.613 z"
           style="fill:#cbab17;fill-opacity:1;fill-rule:nonzero;stroke:none"
           id="path3904"
           inkscape:connector-curvature="0" /><path
           d="M 234.36,600 C 222.773,577.981 207.469,551.222 188.957,518.241 153.042,454.288 113.029,373.385 85.137,288.346 62.158,218.188 48.313,162.295 37.472,121.331 29.516,91.239 23.4,68.702 15.164,51.51 c 0.644,-0.252 1.31,-0.512 1.931,-0.735 8.383,16.9 14.814,39.104 23.052,68.781 11.198,40.387 25.339,95.486 48.147,164.872 27.796,84.502 67.467,165.611 103.217,230.038 19.263,34.712 35.003,62.675 46.673,85.534 z"
           style="fill:#f6a32c;fill-opacity:1;fill-rule:nonzero;stroke:none"
           id="path3906"
           inkscape:connector-curvature="0" /><path
           d="M 202.798,600 C 194.083,586.532 184.11,571.226 173.023,553.711 137.996,498.309 95.938,424.842 65.918,338.656 50.874,295.484 40.266,255.205 32.188,219.533 25.203,188.657 20.341,162.044 16.544,139.538 10.62,104.361 7.294,78.18 -0.117,58.199 v -0.916 c 0.506,-0.187 1.008,-0.373 1.512,-0.565 7.533,19.386 11.327,44.434 17.415,77.615 8.277,45.147 20.246,106.698 44.773,181.833 28.741,87.899 70.988,166.865 107.968,227.316 13.335,21.783 25.157,40.423 35.231,56.518 z"
           style="fill:#5e7035;fill-opacity:1;fill-rule:nonzero;stroke:none"
           id="path3908"
           inkscape:connector-curvature="0" /><path
           d="m 173.648,600 c -5.281,-7.292 -10.877,-15.119 -16.76,-23.54 C 120.924,524.977 77.376,454.496 45.865,368.006 29.597,323.307 18.463,280.498 10.745,241.97 5.827,217.441 2.403,195.266 -0.117,175.455 v -20.226 c 2.763,23.928 6.752,51.969 13.267,84.117 7.756,38.211 18.792,80.762 34.928,125.315 31.314,86.527 74.685,157.379 110.55,209.321 6.468,9.37 12.585,18.015 18.318,26.018 z"
           style="fill:#4e7840;fill-opacity:1;fill-rule:nonzero;stroke:none"
           id="path3910"
           inkscape:connector-curvature="0" /><path
           d="m 147.334,600 c -1.281,-1.65 -2.575,-3.328 -3.883,-5.032 C 106.818,547.182 62.069,479.913 29.125,394.169 16.724,361.874 7.139,330 -0.117,299.603 V 288.08 c 7.444,32.878 17.575,67.715 31.084,103.137 32.771,85.872 77.408,153.526 113.977,201.737 1.823,2.402 3.619,4.75 5.389,7.046 z"
           style="fill:#7ac72a;fill-opacity:1;fill-rule:nonzero;stroke:none"
           id="path3912"
           inkscape:connector-curvature="0" /><path
           d="M 124.049,600 C 88.645,556.145 47.026,495.458 15.249,417.291 9.598,403.362 4.484,389.42 -0.117,375.559 v -7.561 C 4.862,383.477 10.48,399.083 16.774,414.684 48.809,494.058 91.011,555.662 126.677,600 Z"
           style="fill:#654f2d;fill-opacity:1;fill-rule:nonzero;stroke:none"
           id="path3914"
           inkscape:connector-curvature="0" /><path
           d="M 103.635,600 C 70.58,559.926 33.353,506.32 3.825,437.596 2.483,434.47 1.169,431.338 -0.117,428.203 v -5.428 c 1.68,4.183 3.41,8.361 5.189,12.53 C 34.866,505.094 72.585,559.491 105.933,600 Z"
           style="fill:#bc61ad;fill-opacity:1;fill-rule:nonzero;stroke:none"
           id="path3916"
           inkscape:connector-curvature="0" /><path
           d="M 85.821,600 C 57.272,565.709 26.208,521.943 -0.117,467.027 v -4.088 C 26.675,519.766 58.597,564.879 87.821,600 Z"
           style="fill:#961a1f;fill-opacity:1;fill-rule:nonzero;stroke:none"
           id="path3918"
           inkscape:connector-curvature="0" /><path
           d="M 70.173,600 C 46.863,572.008 22.141,538.036 -0.117,496.792 v -3.193 C 22.63,536.291 48.052,571.307 71.952,600 Z"
           style="fill:#da1779;fill-opacity:1;fill-rule:nonzero;stroke:none"
           id="path3920"
           inkscape:connector-curvature="0" /><path
           d="M 59.042,600 C 39.453,576.335 18.966,548.604 -0.117,515.854 v 2.612 C 18.492,550.074 38.389,576.95 57.448,600 Z"
           style="fill:#00adef;fill-opacity:1;fill-rule:nonzero;stroke:none"
           id="path3922"
           inkscape:connector-curvature="0" /><path
           d="M 46.206,600 C 30.886,581.22 15.071,560.06 -0.117,535.948 v 2.171 C 14.616,561.32 29.911,581.771 44.747,600 Z"
           style="fill:#ec008c;fill-opacity:1;fill-rule:nonzero;stroke:none"
           id="path3924"
           inkscape:connector-curvature="0" /><path
           d="M 34.341,600 C 22.95,585.709 11.305,570.153 -0.117,553.05 v 1.9 c 10.978,16.347 22.148,31.279 33.086,45.05 z"
           style="fill:#bc61ad;fill-opacity:1;fill-rule:nonzero;stroke:none"
           id="path3926"
           inkscape:connector-curvature="0" /><path
           d="M 23.073,600 C 15.401,590.058 7.622,579.563 -0.117,568.416 v 1.778 C 7.182,580.675 14.512,590.583 21.746,600 Z"
           style="fill:#f68712;fill-opacity:1;fill-rule:nonzero;stroke:none"
           id="path3928"
           inkscape:connector-curvature="0" /><path
           d="M 12.082,600 C 8.037,594.537 3.962,588.926 -0.117,583.149 v 1.771 c 3.641,5.152 7.276,10.175 10.888,15.08 z"
           style="fill:#bdbcbc;fill-opacity:1;fill-rule:nonzero;stroke:none"
           id="path3930"
           inkscape:connector-curvature="0" /><path
           d="m 1.107,600 c -0.408,-0.579 -0.816,-1.16 -1.224,-1.742 V 600 Z"
           style="fill:#4e7840;fill-opacity:1;fill-rule:nonzero;stroke:none"
           id="path3932"
           inkscape:connector-curvature="0" /><path
           d="m 308.211,0.242 c -0.7,3.21 -1.48,6.504 -2.346,9.891 -6.469,25.288 -17.525,56.641 -33.714,95.089 -20.461,48.618 -49.649,105.455 -79.638,171.781 -30.762,68.041 -52.294,126.166 -74.208,169.07 -27.289,53.234 -56.133,80.477 -84.449,87.159 -10.994,2.568 -22.439,2.147 -33.973,-1.127 v 0.554 c 10.272,2.573 20.419,2.816 30.179,0.618 27.689,-6.249 55.77,-32.947 82.368,-85.567 21.414,-42.604 42.552,-100.433 73.018,-168.492 30.083,-67.186 60.222,-124.882 81.636,-174.122 16.906,-38.899 28.627,-70.473 35.653,-95.851 0.852,-3.076 1.632,-6.075 2.344,-9.003 z"
           style="fill:#f57e13;fill-opacity:1;fill-rule:nonzero;stroke:none"
           id="path3934"
           inkscape:connector-curvature="0" /><path
           d="m 281.414,0.242 c -0.439,1.047 -0.886,2.106 -1.342,3.172 -11.197,26.156 -27.882,59.537 -49.968,102.036 -28.082,54.025 -63.048,118.239 -92.474,189.678 -27.776,67.465 -46.131,122.853 -63.978,163.059 -21.537,48.407 -44.37,71.248 -68.065,75.057 -1.877,0.301 -3.779,0.494 -5.704,0.58 v -0.318 c 0.922,-0.087 1.838,-0.199 2.748,-0.338 23.225,-3.579 45.413,-25.922 66.331,-73.755 17.347,-39.883 35.317,-94.927 62.702,-162.239 29.213,-71.775 64.566,-136.833 93.473,-191.525 22.763,-43.021 40.154,-76.656 51.908,-102.936 0.372,-0.829 0.738,-1.653 1.099,-2.471 z"
           style="fill:#ed1c24;fill-opacity:1;fill-rule:nonzero;stroke:none"
           id="path3936"
           inkscape:connector-curvature="0" /><path
           d="m 254.045,0.242 c -15.916,26.953 -37.981,61.992 -64.648,107.931 -34.478,59.352 -70.896,130.016 -98.003,203.1 -24.424,65.868 -39.347,118.412 -53.225,155.882 -11.81,31.717 -24.467,50.536 -38.286,59.441 v -1.777 c 12.505,-9.37 23.94,-27.46 34.581,-56.761 C 47.897,430.906 62.39,378.694 86.393,313.046 113.153,239.903 149.559,168.602 184.672,108.641 211.729,62.447 234.317,27.259 250.79,0.242 Z"
           style="fill:#cbab17;fill-opacity:1;fill-rule:nonzero;stroke:none"
           id="path3938"
           inkscape:connector-curvature="0" /><path
           d="M 227.358,0.242 C 207.137,28.04 180.714,64.497 151.227,112.934 112.211,177.053 76.84,252.283 52.83,325.258 31.841,389.084 20.465,438.845 10.156,473.697 7.128,483.845 3.692,492.552 -0.117,499.914 v -5.098 c 2.683,-6.026 5.138,-12.833 7.346,-20.462 9.928,-34.539 20.9,-83.965 41.47,-147.532 C 72.311,253.933 107.441,178.27 146.863,113.627 176.62,64.843 203.527,28.176 224.238,0.242 Z"
           style="fill:#f6a32c;fill-opacity:1;fill-rule:nonzero;stroke:none"
           id="path3940"
           inkscape:connector-curvature="0" /><path
           d="M 202.172,0.242 C 178.06,29.34 147.775,67.753 116.261,119.205 74.576,187.309 41.539,265.387 20.958,337.321 11.722,369.659 5.13,397.999 -0.117,422.322 V 408.811 C 3.813,390.384 8.556,369.817 14.613,347.099 32.716,279.296 62.25,202.955 102.844,133.867 137.563,74.732 171.925,31.824 198.75,0.242 Z"
           style="fill:#5e7035;fill-opacity:1;fill-rule:nonzero;stroke:none"
           id="path3942"
           inkscape:connector-curvature="0" /><path
           d="M 178.512,0.242 C 148.372,33.421 110.846,78.71 75.154,141.014 40.373,201.753 15.78,266.496 -0.117,325.214 v -9.409 C 15.512,260.054 38.959,199.341 71.625,142.01 107.41,79.277 145.354,33.659 175.916,0.242 Z"
           style="fill:#4e7840;fill-opacity:1;fill-rule:nonzero;stroke:none"
           id="path3944"
           inkscape:connector-curvature="0" /><path
           d="M 157.669,0.242 C 124.174,35.479 83.49,83.63 47.275,149.446 27.75,184.959 12.148,221.314 -0.117,256.658 v -6.803 C 11.566,217.024 26.172,183.4 44.19,150.453 80.434,84.239 121.464,35.739 155.336,0.242 Z"
           style="fill:#7ac72a;fill-opacity:1;fill-rule:nonzero;stroke:none"
           id="path3946"
           inkscape:connector-curvature="0" /><path
           d="M 138.953,0.242 C 102.535,37.74 59.194,88.817 22.959,157.896 14.397,174.233 6.731,190.654 -0.117,206.989 v -4.976 C 6.02,187.659 12.798,173.25 20.272,158.896 56.483,89.448 100.108,38.018 136.853,0.242 Z"
           style="fill:#654f2d;fill-opacity:1;fill-rule:nonzero;stroke:none"
           id="path3948"
           inkscape:connector-curvature="0" /><path
           d="M 122.11,0.242 C 83.215,40.175 37.686,94.144 1.852,166.162 c -0.663,1.332 -1.319,2.665 -1.969,3.996 V 166.41 C 35.606,94.424 81.199,40.349 120.218,0.242 Z"
           style="fill:#bc61ad;fill-opacity:1;fill-rule:nonzero;stroke:none"
           id="path3950"
           inkscape:connector-curvature="0" /><path
           d="M 106.818,0.242 C 71.963,36.479 32.51,83.049 -0.117,142.15 v -2.904 C 32.085,81.644 70.776,35.989 105.078,0.242 Z"
           style="fill:#961a1f;fill-opacity:1;fill-rule:nonzero;stroke:none"
           id="path3952"
           inkscape:connector-curvature="0" /><path
           d="M 92.684,0.242 C 62.344,32.602 28.931,72.184 -0.117,120.124 v -2.331 C 28.505,70.999 61.254,32.167 91.068,0.242 Z"
           style="fill:#da1779;fill-opacity:1;fill-rule:nonzero;stroke:none"
           id="path3954"
           inkscape:connector-curvature="0" /><path
           d="M 78.984,0.242 C 53.087,28.942 25.177,62.5 -0.117,101.479 v 1.992 C 25.614,63.558 54.136,29.355 80.538,0.242 Z"
           style="fill:#00adef;fill-opacity:1;fill-rule:nonzero;stroke:none"
           id="path3956"
           inkscape:connector-curvature="0" /><path
           d="M 66.198,0.242 C 44.477,25.492 21.447,53.894 -0.117,85.731 v 1.792 C 21.894,54.893 45.484,25.901 67.703,0.242 Z"
           style="fill:#ec008c;fill-opacity:1;fill-rule:nonzero;stroke:none"
           id="path3958"
           inkscape:connector-curvature="0" /><path
           d="M 53.652,0.242 C 36.026,21.891 17.599,45.448 -0.117,71.049 v 1.722 C 18.065,46.46 37.031,22.333 55.144,0.242 Z"
           style="fill:#bc61ad;fill-opacity:1;fill-rule:nonzero;stroke:none"
           id="path3960"
           inkscape:connector-curvature="0" /><path
           d="M 41.123,0.242 C 27.592,17.934 13.61,36.648 -0.117,56.444 v 1.77 C 14.095,37.733 28.603,18.432 42.625,0.242 Z"
           style="fill:#f68712;fill-opacity:1;fill-rule:nonzero;stroke:none"
           id="path3962"
           inkscape:connector-curvature="0" /><path
           d="M 28.43,0.242 C 19.042,13.37 9.445,26.94 -0.117,40.974 v 1.92 C 9.952,28.163 20.072,13.953 29.96,0.242 Z"
           style="fill:#bdbcbc;fill-opacity:1;fill-rule:nonzero;stroke:none"
           id="path3964"
           inkscape:connector-curvature="0" /><path
           d="M 15.45,0.242 C 10.308,7.956 5.105,15.789 -0.117,23.741 v 2.194 C 5.635,17.223 11.368,8.659 17.027,0.242 Z"
           style="fill:#4e7840;fill-opacity:1;fill-rule:nonzero;stroke:none"
           id="path3966"
           inkscape:connector-curvature="0" /><path
           d="M 2.08,0.242 C 1.348,1.421 0.616,2.603 -0.117,3.786 V 6.344 C 1.158,4.305 2.43,2.27 3.698,0.242 Z"
           style="fill:#ea442f;fill-opacity:1;fill-rule:nonzero;stroke:none"
           id="path3968"
           inkscape:connector-curvature="0" /><path
           d="m -0.117,249.084 c 15.642,-4.196 34.01,-11.072 55.468,-20.72 90.504,-40.888 216.092,-92.314 328.039,-122.677 41.145,-11.166 74.032,-19.671 99.327,-27.37 20.058,-6.092 35.977,-11.994 48.715,-19.44 0.242,0.613 0.457,1.226 0.711,1.839 -12.469,7.55 -28.077,13.676 -47.767,19.989 -24.822,7.958 -57.074,16.733 -97.472,27.949 -49.917,13.867 -108.804,30.291 -170.341,53.563 -62.295,23.573 -114.409,49.275 -156.696,68.066 -23.421,10.382 -43.27,17.55 -59.984,21.621 z"
           style="fill:#f57e13;fill-opacity:1;fill-rule:nonzero;stroke:none"
           id="path3970"
           inkscape:connector-curvature="0" /><path
           d="m -0.117,225.137 c 6.925,-3.125 14.355,-6.74 22.325,-10.85 37.461,-19.375 85.435,-46.07 145.967,-71.857 63.138,-26.882 128.224,-46.193 185.967,-59.736 47.238,-11.076 85.364,-17.723 114.662,-23.317 23.191,-4.436 41.796,-8.537 56.899,-15.356 0.224,0.577 0.417,1.14 0.66,1.733 -14.804,6.879 -33.083,11.184 -55.899,15.797 -28.813,5.845 -66.314,12.687 -112.849,23.734 -56.979,13.53 -121.546,32.483 -184.651,59.01 -60.8,25.567 -109.23,52.178 -147.202,71.495 -9.329,4.74 -17.938,8.82 -25.879,12.251 z"
           style="fill:#ed1c24;fill-opacity:1;fill-rule:nonzero;stroke:none"
           id="path3972"
           inkscape:connector-curvature="0" /><path
           d="M -0.117,201.101 C 32.787,181.522 75.743,155.124 131.56,128.772 194.072,99.269 262.312,76.729 325.708,62.738 378.483,51.093 421.74,45.963 455.036,42.183 c 26.403,-3.012 47.81,-5.592 65.466,-12.283 0.191,0.547 0.378,1.1 0.591,1.654 -17.339,6.691 -38.404,9.445 -64.424,12.596 -32.818,4.005 -75.477,9.267 -127.627,20.821 -62.795,13.907 -130.759,36.059 -193.42,65.271 -57.746,26.951 -102.018,54.011 -135.739,73.695 z"
           style="fill:#cbab17;fill-opacity:1;fill-rule:nonzero;stroke:none"
           id="path3974"
           inkscape:connector-curvature="0" /><path
           d="M -0.117,178.486 C 26.358,160.847 59.346,139.704 100.618,118.189 161.356,86.531 231.008,60.808 298.704,45.799 356.266,33.06 404.381,29.005 441.589,26.648 c 29.626,-1.898 53.934,-3.342 74.32,-10.41 0.168,0.544 0.367,1.097 0.519,1.619 -20.043,7.002 -43.998,8.565 -73.24,10.577 -36.744,2.515 -84.301,6.648 -141.334,19.237 -67.252,14.866 -136.806,40.217 -197.806,71.624 -42.862,22.078 -76.957,43.814 -104.165,61.764 z"
           style="fill:#f6a32c;fill-opacity:1;fill-rule:nonzero;stroke:none"
           id="path3976"
           inkscape:connector-curvature="0" /><path
           d="M -0.117,158.007 C 18.701,144.504 40.906,129.413 67.322,113.809 122.038,81.482 188.623,52.182 258.405,34.5 324.941,17.643 381.774,13.788 425.369,12.434 c 34.619,-1.061 62.915,-1.548 86.624,-9.649 0.151,0.535 0.276,1.07 0.429,1.601 -22.917,7.83 -49.885,8.655 -82.33,9.821 C 389.556,15.683 337.475,19.13 276.394,33.171 205.96,49.398 136.155,77.728 77.517,110.92 46.744,128.345 21.221,145.365 -0.117,160.463 Z"
           style="fill:#5e7035;fill-opacity:1;fill-rule:nonzero;stroke:none"
           id="path3978"
           inkscape:connector-curvature="0" /><path
           d="M 449.825,0.242 C 438.604,0.734 426.726,0.913 414.125,1.139 367.226,1.977 306.647,5.751 237.376,24.433 166.225,43.631 100.639,75.077 48.327,108.407 30.052,120.056 14.032,131.362 -0.117,141.898 v -2.034 C 13.424,129.744 28.673,118.931 45.971,107.796 97.96,74.351 163.376,42.622 234.652,23.203 294.346,6.963 347.761,1.865 391.623,0.242 Z"
           style="fill:#4e7840;fill-opacity:1;fill-rule:nonzero;stroke:none"
           id="path3980"
           inkscape:connector-curvature="0" /><path
           d="M 279.021,0.242 C 258.676,3.859 237.464,8.66 215.574,15.034 143.67,36.006 79.706,69.553 30.081,103.687 19.164,111.201 9.137,118.546 -0.117,125.607 v -1.831 C 8.58,117.127 17.955,110.232 28.108,103.185 77.424,68.982 141.168,35.202 213.123,14.038 232.801,8.256 251.949,3.751 270.427,0.242 Z"
           style="fill:#7ac72a;fill-opacity:1;fill-rule:nonzero;stroke:none"
           id="path3982"
           inkscape:connector-curvature="0" /><path
           d="M 220.817,0.242 C 212.598,2.417 204.292,4.812 195.913,7.445 123.878,30.12 61.835,65.413 14.668,99.986 9.537,103.748 4.613,107.46 -0.117,111.107 v -1.625 c 4.21,-3.249 8.573,-6.547 13.097,-9.886 46.907,-34.582 108.692,-70.093 180.719,-92.953 7.284,-2.312 14.515,-4.44 21.684,-6.401 z"
           style="fill:#654f2d;fill-opacity:1;fill-rule:nonzero;stroke:none"
           id="path3984"
           inkscape:connector-curvature="0" /><path
           d="m 181.411,0.242 c -1.063,0.353 -2.127,0.708 -3.192,1.07 -71.718,24.279 -131.681,61.03 -176.828,95.63 -0.505,0.387 -1.008,0.774 -1.508,1.159 v -1.473 c 0.01,-0.008 0.019,-0.015 0.029,-0.023 44.942,-34.568 104.657,-71.459 176.31,-95.944 0.411,-0.14 0.821,-0.279 1.233,-0.419 z"
           style="fill:#bc61ad;fill-opacity:1;fill-rule:nonzero;stroke:none"
           id="path3986"
           inkscape:connector-curvature="0" /><path
           d="M 151.721,0.242 C 90.771,23.777 39.919,55.938 -0.117,86.26 V 84.914 C 39.284,55.147 89.04,23.604 148.621,0.242 Z"
           style="fill:#961a1f;fill-opacity:1;fill-rule:nonzero;stroke:none"
           id="path3988"
           inkscape:connector-curvature="0" /><path
           d="M 127.879,0.242 C 77.472,22.033 34.945,49.335 -0.117,75.251 V 73.984 C 34.393,48.561 76.033,21.791 125.301,0.242 Z"
           style="fill:#da1779;fill-opacity:1;fill-rule:nonzero;stroke:none"
           id="path3990"
           inkscape:connector-curvature="0" /><path
           d="M 107.062,0.242 C 65.815,19.753 30.358,42.609 -0.117,64.427 v 1.23 C 30.871,43.383 67.089,20.034 109.327,0.242 Z"
           style="fill:#00adef;fill-opacity:1;fill-rule:nonzero;stroke:none"
           id="path3992"
           inkscape:connector-curvature="0" /><path
           d="M 88.994,0.242 C 55.542,17.166 26.094,35.997 -0.117,54.08 v 1.235 C 26.607,36.795 56.751,17.496 91.097,0.242 Z"
           style="fill:#ec008c;fill-opacity:1;fill-rule:nonzero;stroke:none"
           id="path3994"
           inkscape:connector-curvature="0" /><path
           d="M 71.911,0.242 C 45.581,14.252 21.75,29.197 -0.117,43.646 v 1.255 C 22.282,30.021 46.777,14.616 73.934,0.242 Z"
           style="fill:#bc61ad;fill-opacity:1;fill-rule:nonzero;stroke:none"
           id="path3996"
           inkscape:connector-curvature="0" /><path
           d="M 54.829,0.242 C 35.282,10.988 17.058,22.08 -0.117,32.886 v 1.31 C 17.647,22.953 36.555,11.398 56.907,0.242 Z"
           style="fill:#f68712;fill-opacity:1;fill-rule:nonzero;stroke:none"
           id="path3998"
           inkscape:connector-curvature="0" /><path
           d="M 36.863,0.242 C 24.049,7.38 11.751,14.576 -0.117,21.647 v 1.368 C 12.425,15.491 25.457,7.826 39.081,0.242 Z"
           style="fill:#bdbcbc;fill-opacity:1;fill-rule:nonzero;stroke:none"
           id="path4000"
           inkscape:connector-curvature="0" /><path
           d="M 17.083,0.242 C 11.262,3.451 5.531,6.65 -0.117,9.825 v 1.443 C 6.331,7.617 12.889,3.934 19.569,0.242 Z"
           style="fill:#4e7840;fill-opacity:1;fill-rule:nonzero;stroke:none"
           id="path4002"
           inkscape:connector-curvature="0" /><path
           d="m 600,261.423 c -6.757,-4.272 -13.969,-8.951 -21.756,-13.971 C 550.966,229.867 516.621,207.858 473.648,184.064 423.18,156.11 366.043,129.588 308.154,109.191 253.376,89.898 206.288,77.823 169.775,67.363 123.015,53.931 98.251,40.902 90.836,24.77 87.468,17.411 87.266,9.16 90,0.242 h -0.679 c -2.082,8.056 -1.708,15.515 1.299,22.207 7.164,15.883 31.51,28.53 77.795,41.55 36.261,10.128 83.153,21.887 137.887,40.918 58.052,20.196 115.657,46.714 166.609,75.056 43.47,24.183 78.155,46.709 105.632,64.796 7.673,5.05 14.787,9.772 21.457,14.098 z"
           style="fill:#f57e13;fill-opacity:1;fill-rule:nonzero;stroke:none"
           id="path4004"
           inkscape:connector-curvature="0" /><path
           d="m 600,240.524 c -6.174,-4.637 -12.712,-9.592 -19.72,-14.799 -29.019,-21.58 -66.208,-47.734 -113.291,-74.28 C 412.714,120.851 352.151,94.815 293.344,76.334 239.185,59.314 193.857,49.871 159.516,41.984 114.885,31.704 93.11,17.96 88.458,0.242 h 0.36 c 5.712,16.686 27.241,29.596 69.624,39.103 34.088,7.602 79.19,16.757 133.255,33.463 58.855,18.229 119.757,44.14 174.446,74.97 47.556,26.809 85.072,53.438 114.315,75.458 6.938,5.225 13.418,10.206 19.542,14.879 z"
           style="fill:#ed1c24;fill-opacity:1;fill-rule:nonzero;stroke:none"
           id="path4006"
           inkscape:connector-curvature="0" /><path
           d="M 600,221.04 C 594.136,216.147 587.965,210.996 581.394,205.647 550.518,180.49 510.522,150.743 459.66,122.312 402.214,90.208 339.28,65.433 280.365,49.23 227.215,34.617 183.735,27.707 151.429,22.014 124.494,17.23 106.556,9.887 96.117,0.242 h 1.738 c 10.624,8.746 27.798,15.396 52.722,19.68 32.082,5.463 75.347,12.083 128.362,26.406 58.886,15.924 122.042,40.509 179.823,72.726 51.283,28.612 91.608,58.746 122.717,84.302 6.536,5.371 12.678,10.548 18.521,15.469 z"
           style="fill:#cbab17;fill-opacity:1;fill-rule:nonzero;stroke:none"
           id="path4008"
           inkscape:connector-curvature="0" /><path
           d="M 600,203.156 C 594.229,198.04 588.193,192.696 581.804,187.187 548.974,158.9 506.238,126.179 452.029,96.58 392.025,63.848 327.563,40.811 269.087,26.979 217.164,14.699 175.471,10.141 144.94,6.011 135.115,4.668 126.514,2.727 119.066,0.242 h 4.848 c 6.088,1.7 12.854,3.061 20.329,4.057 30.325,4.001 71.805,8.319 123.577,20.311 58.393,13.567 123.005,36.345 183.274,69.104 54.586,29.683 97.645,62.719 130.712,91.35 6.385,5.53 12.42,10.897 18.194,16.039 z"
           style="fill:#f6a32c;fill-opacity:1;fill-rule:nonzero;stroke:none"
           id="path4010"
           inkscape:connector-curvature="0" /><path
           d="M 600,186.699 C 594.152,181.37 588.071,175.834 581.671,170.153 546.796,139.205 501.433,104.109 444.317,73.979 382.298,41.295 316.947,20.274 259.26,8.739 240.747,5.036 223.648,2.339 207.984,0.242 h 13.233 c 9.536,1.363 19.572,2.967 30.105,4.893 54.422,9.941 117.426,28.388 178.986,58.96 62.36,30.975 111.569,68.478 148.763,101.53 7.365,6.548 14.3,12.908 20.929,18.988 z"
           style="fill:#5e7035;fill-opacity:1;fill-rule:nonzero;stroke:none"
           id="path4012"
           inkscape:connector-curvature="0" /><path
           d="m 600,171.311 c -6.842,-6.28 -13.959,-12.829 -21.473,-19.55 C 539.365,116.763 487.851,77.725 423.291,46.949 376.527,24.681 329.549,9.798 286.508,0.242 h 6.725 c 40.867,9.437 85.061,23.68 129.125,44.539 64.839,30.712 116.651,69.948 156.08,105.184 7.539,6.744 14.686,13.315 21.562,19.62 z"
           style="fill:#4e7840;fill-opacity:1;fill-rule:nonzero;stroke:none"
           id="path4014"
           inkscape:connector-curvature="0" /><path
           d="m 600,157.171 c -7.144,-6.443 -14.525,-13.146 -22.259,-20.01 C 536.288,100.388 482.32,60.073 415.666,29.867 388.43,17.537 361.325,7.837 335.126,0.242 h 4.825 c 24.405,7.257 49.556,16.362 74.841,27.744 66.869,30.119 121.107,70.572 162.854,107.516 7.759,6.872 15.173,13.584 22.354,20.037 z"
           style="fill:#7ac72a;fill-opacity:1;fill-rule:nonzero;stroke:none"
           id="path4016"
           inkscape:connector-curvature="0" /><path
           d="M 600,143.771 C 592.537,137.26 584.882,130.5 576.927,123.587 533.076,85.51 476.851,44.366 408.494,14.956 395.757,9.479 383.087,4.598 370.563,0.242 h 3.621 c 11.071,3.92 22.25,8.257 33.487,13.056 68.54,29.301 125.03,70.521 169.166,108.732 7.978,6.91 15.665,13.669 23.163,20.181 z"
           style="fill:#654f2d;fill-opacity:1;fill-rule:nonzero;stroke:none"
           id="path4018"
           inkscape:connector-curvature="0" /><path
           d="M 600,130.863 C 592.249,124.399 584.353,117.699 576.219,110.854 529.899,71.879 471.562,30.301 401.813,1.802 400.524,1.274 399.236,0.756 397.95,0.242 h 2.883 c 0.07,0.029 0.144,0.058 0.215,0.088 69.904,28.375 128.48,70.004 175.101,109.056 8.149,6.828 16.07,13.51 23.851,19.957 z"
           style="fill:#bc61ad;fill-opacity:1;fill-rule:nonzero;stroke:none"
           id="path4020"
           inkscape:connector-curvature="0" /><path
           d="M 600,118.231 C 592.04,111.948 583.983,105.445 575.756,98.8 532.591,63.919 480.5,27.306 420.083,0.242 h 2.377 c 59.261,26.855 110.539,62.824 153.257,97.148 8.233,6.617 16.304,13.091 24.283,19.348 z"
           style="fill:#961a1f;fill-opacity:1;fill-rule:nonzero;stroke:none"
           id="path4022"
           inkscape:connector-curvature="0" /><path
           d="M 600,105.679 C 591.945,99.699 583.841,93.52 575.63,87.201 536.161,56.831 490.451,25.318 438.938,0.242 h 2.107 c 50.555,24.818 95.562,55.755 134.597,85.605 8.201,6.27 16.301,12.404 24.358,18.34 z"
           style="fill:#da1779;fill-opacity:1;fill-rule:nonzero;stroke:none"
           id="path4024"
           inkscape:connector-curvature="0" /><path
           d="M 600,92.682 C 592.014,87.139 584.016,81.419 575.971,75.567 540.248,49.604 500.356,22.877 456.58,0.242 h -1.986 c 44.613,22.935 85.15,50.199 121.308,76.662 8.076,5.912 16.094,11.691 24.098,17.291 z"
           style="fill:#00adef;fill-opacity:1;fill-rule:nonzero;stroke:none"
           id="path4026"
           inkscape:connector-curvature="0" /><path
           d="M 600,79.855 C 592.27,74.844 584.559,69.683 576.837,64.402 544.896,42.54 510.278,20.167 473.151,0.242 h -1.973 c 37.885,20.264 73.121,43.147 105.524,65.488 7.769,5.358 15.527,10.593 23.298,15.675 z"
           style="fill:#ec008c;fill-opacity:1;fill-rule:nonzero;stroke:none"
           id="path4028"
           inkscape:connector-curvature="0" /><path
           d="M 600,66.748 C 592.74,62.352 585.515,57.833 578.308,53.21 550.479,35.357 521.064,17.147 490.146,0.242 h -2.071 c 31.644,17.281 61.682,35.982 90.024,54.306 7.279,4.705 14.575,9.303 21.901,13.776 z"
           style="fill:#bc61ad;fill-opacity:1;fill-rule:nonzero;stroke:none"
           id="path4030"
           inkscape:connector-curvature="0" /><path
           d="M 600,49.95 C 570.413,33.769 540.55,16.692 509.725,0.242 h -2.45 C 539.005,17.226 569.66,34.93 600,51.665 Z"
           style="fill:#f68712;fill-opacity:1;fill-rule:nonzero;stroke:none"
           id="path4032"
           inkscape:connector-curvature="0" /><path
           d="M 600,35.355 C 577.485,23.878 554.904,12.002 532.022,0.242 h -2.866 C 553.035,12.583 576.56,25.081 600,37.13 Z"
           style="fill:#bdbcbc;fill-opacity:1;fill-rule:nonzero;stroke:none"
           id="path4034"
           inkscape:connector-curvature="0" /><path
           d="M 600,20.258 C 586.154,13.672 572.31,6.97 558.425,0.242 h -3.444 C 570.025,7.591 585.015,14.919 600,22.106 Z"
           style="fill:#4e7840;fill-opacity:1;fill-rule:nonzero;stroke:none"
           id="path4036"
           inkscape:connector-curvature="0" /><path
           d="M 600,4.746 C 596.642,3.249 593.284,1.748 589.927,0.242 h -4.033 c 4.7,2.131 9.402,4.252 14.106,6.364 z"
           style="fill:#ea442f;fill-opacity:1;fill-rule:nonzero;stroke:none"
           id="path4038"
           inkscape:connector-curvature="0" /><path
           d="m 332.756,0.242 c 3.032,8.836 7.942,18.725 14.886,29.76 15.646,24.752 38.254,56.583 64.558,98.675 29.841,47.745 60.347,104.458 84.409,165.229 21.89,55.258 36.141,105.327 46.5,146.588 8.337,33.177 13.632,59.719 19.233,80.338 -0.548,0.214 -1.087,0.432 -1.639,0.655 C 554.929,501.147 549.4,474.939 540.924,442.169 530.385,401.418 516.077,351.923 494.36,297.117 470.442,236.665 440.144,179.971 410.419,132.051 384.174,89.729 361.634,57.593 346.04,32.528 338.535,20.441 333.398,9.722 330.435,0.242 Z"
           style="fill:#f57e13;fill-opacity:1;fill-rule:nonzero;stroke:none"
           id="path4040"
           inkscape:connector-curvature="0" /><path
           d="m 352.386,0.242 c 2.104,3.613 4.523,7.362 7.265,11.247 15.831,22.336 38.863,51.641 65.678,91.684 30.827,46.015 63.068,102.5 88.24,165.393 23.404,58.51 37.553,112.978 46.521,158.275 7.236,36.499 10.668,65.808 15.278,88.732 -0.49,0.217 -0.976,0.39 -1.499,0.606 -4.718,-22.645 -8.342,-51.631 -15.693,-87.744 C 549.033,383.603 534.896,329.627 511.695,271.45 486.672,208.752 454.613,152.216 423.896,105.976 397.134,65.689 374.162,36.078 358.345,13.479 355.128,8.872 352.354,4.462 350.01,0.242 Z"
           style="fill:#ed1c24;fill-opacity:1;fill-rule:nonzero;stroke:none"
           id="path4042"
           inkscape:connector-curvature="0" /><path
           d="m 372.28,0.242 c 15.737,20.013 38.014,46.044 63.767,81.846 31.665,44.057 65.453,99.724 91.746,163.847 24.942,60.893 39.279,119.106 47.201,168.024 6.419,39.603 8.245,71.588 12.432,96.846 -0.461,0.178 -0.933,0.343 -1.399,0.539 -4.208,-24.977 -6.218,-56.643 -12.713,-95.887 C 565.272,366.952 550.979,309.15 526.22,248.5 500.053,184.482 466.45,128.688 434.872,84.396 408.463,47.379 385.71,20.661 369.918,0.242 Z"
           style="fill:#cbab17;fill-opacity:1;fill-rule:nonzero;stroke:none"
           id="path4044"
           inkscape:connector-curvature="0" /><path
           d="m 391.154,0.242 c 14.489,16.821 32.917,37.543 53.588,64.402 32.33,42.039 67.443,96.533 94.867,161.222 26.495,62.542 41.215,123.903 48.445,176.04 5.879,42.481 6.495,77.052 10.8,104.678 -0.456,0.152 -0.908,0.372 -1.344,0.478 -4.267,-27.335 -5.006,-61.595 -10.938,-103.743 C 579.276,351.55 564.607,290.538 538.314,228.149 511.028,163.5 476.077,108.843 443.812,66.565 422.569,38.746 403.687,17.435 388.991,0.242 Z"
           style="fill:#f6a32c;fill-opacity:1;fill-rule:nonzero;stroke:none"
           id="path4046"
           inkscape:connector-curvature="0" /><path
           d="m 600,407.211 c -0.516,-4.979 -1.093,-10.065 -1.747,-15.258 C 591.366,337.291 576.129,273.635 548.34,210.12 519.968,145.35 483.822,92.093 451.086,51.733 434.394,31.149 419.184,14.428 406.425,0.242 h 2.114 c 11.48,12.621 24.963,27.319 39.761,45.051 31.15,37.316 66.482,86.868 95.363,148.654 31.191,66.7 48.193,134.5 55.599,192.474 0.258,2.014 0.503,4.012 0.738,5.993 z"
           style="fill:#5e7035;fill-opacity:1;fill-rule:nonzero;stroke:none"
           id="path4048"
           inkscape:connector-curvature="0" /><path
           d="M 600,326.573 C 590.292,279.489 574.407,229.104 550.65,180.071 520.906,118.693 484.801,70.537 453.561,34.565 442.323,21.635 431.877,10.345 422.544,0.242 h 1.81 c 9.022,9.765 19.064,20.619 29.84,32.968 31.244,35.811 67.445,83.789 97.317,145.095 22.999,47.229 38.652,95.812 48.489,141.544 z"
           style="fill:#4e7840;fill-opacity:1;fill-rule:nonzero;stroke:none"
           id="path4050"
           inkscape:connector-curvature="0" /><path
           d="M 600,278.178 C 589.873,241.006 575.871,202.938 557.312,166.095 526.666,105.365 489.858,58.728 458.742,23.89 451.146,15.382 443.939,7.548 437.228,0.242 h 1.681 c 6.396,6.975 13.236,14.418 20.428,22.453 31.079,34.74 67.967,81.197 98.695,141.852 18.085,35.721 31.866,72.647 41.968,108.829 z"
           style="fill:#7ac72a;fill-opacity:1;fill-rule:nonzero;stroke:none"
           id="path4052"
           inkscape:connector-curvature="0" /><path
           d="M 600,242.47 C 590.282,212.604 578.023,182.667 562.911,153.744 531.511,93.735 494.187,48.48 463.48,14.247 459.133,9.4 454.926,4.74 450.883,0.242 h 1.579 c 3.724,4.158 7.585,8.45 11.565,12.894 30.63,34.206 68.029,79.291 99.5,139.228 14.775,28.151 26.834,57.293 36.473,86.419 z"
           style="fill:#654f2d;fill-opacity:1;fill-rule:nonzero;stroke:none"
           id="path4054"
           inkscape:connector-curvature="0" /><path
           d="M 600,214.351 C 591.006,190.063 580.31,165.99 567.749,142.724 535.701,83.431 498.061,39.312 468.063,5.087 c -1.428,-1.63 -2.84,-3.245 -4.234,-4.845 h 1.515 c 1.078,1.244 2.167,2.495 3.266,3.756 29.903,34.257 67.573,78.259 99.675,137.482 12.297,22.693 22.818,46.167 31.715,69.877 z"
           style="fill:#bc61ad;fill-opacity:1;fill-rule:nonzero;stroke:none"
           id="path4056"
           inkscape:connector-curvature="0" /><path
           d="M 600,191.087 C 591.867,171.247 582.595,151.7 572.098,132.77 540.877,76.496 504.87,34.327 476.384,0.242 h 1.479 c 28.223,33.983 63.79,75.787 94.733,131.393 10.273,18.48 19.381,37.555 27.404,56.926 z"
           style="fill:#961a1f;fill-opacity:1;fill-rule:nonzero;stroke:none"
           id="path4058"
           inkscape:connector-curvature="0" /><path
           d="M 600,170.944 C 592.829,154.832 584.913,138.992 576.209,123.601 547.405,72.709 515.023,33.406 488.777,0.242 h 1.472 c 25.979,33.044 57.935,72.03 86.447,122.304 8.501,14.997 16.254,30.425 23.304,46.121 z"
           style="fill:#da1779;fill-opacity:1;fill-rule:nonzero;stroke:none"
           id="path4060"
           inkscape:connector-curvature="0" /><path
           d="M 600,152.081 C 593.944,139.383 587.438,126.898 580.46,114.71 554.215,68.948 525.459,32.299 501.591,0.242 h -1.49 c 24.146,32.196 53.321,69.139 79.861,115.483 7.175,12.538 13.846,25.391 20.038,38.466 z"
           style="fill:#00adef;fill-opacity:1;fill-rule:nonzero;stroke:none"
           id="path4062"
           inkscape:connector-curvature="0" /><path
           d="m 600,134.617 c -4.816,-9.554 -9.877,-18.97 -15.191,-28.21 C 561.134,65.253 535.788,31.03 514.265,0.242 h -1.533 c 21.807,30.952 47.561,65.459 71.542,107.151 5.514,9.588 10.753,19.367 15.726,29.295 z"
           style="fill:#ec008c;fill-opacity:1;fill-rule:nonzero;stroke:none"
           id="path4064"
           inkscape:connector-curvature="0" /><path
           d="m 600,117.331 c -3.324,-6.42 -6.793,-12.803 -10.417,-19.14 C 568.506,61.362 546.458,29.537 527.298,0.242 h -1.572 c 19.441,29.486 41.873,61.6 63.258,98.937 3.845,6.715 7.512,13.477 11.016,20.284 z"
           style="fill:#bc61ad;fill-opacity:1;fill-rule:nonzero;stroke:none"
           id="path4066"
           inkscape:connector-curvature="0" /><path
           d="m 600,99.027 c -1.652,-3.063 -3.336,-6.117 -5.051,-9.16 C 577.151,58.312 560.226,28.641 544.91,0.242 h -1.56 c 15.592,28.642 32.833,58.631 50.921,90.633 1.951,3.453 3.86,6.92 5.729,10.398 z"
           style="fill:#f68712;fill-opacity:1;fill-rule:nonzero;stroke:none"
           id="path4068"
           inkscape:connector-curvature="0" /><path
           d="M 600,79.356 C 584.997,52.091 570.939,25.803 558.124,0.242 h -1.602 C 569.811,26.533 584.42,53.624 600,81.814 Z"
           style="fill:#bdbcbc;fill-opacity:1;fill-rule:nonzero;stroke:none"
           id="path4070"
           inkscape:connector-curvature="0" /><path
           d="M 600,57.07 C 589.954,37.837 580.493,18.908 571.673,0.242 h -1.649 c 9.308,19.575 19.324,39.451 29.976,59.687 z"
           style="fill:#4e7840;fill-opacity:1;fill-rule:nonzero;stroke:none"
           id="path4072"
           inkscape:connector-curvature="0" /><path
           d="M 600,30.685 C 595.081,20.487 590.342,10.34 585.781,0.242 h -1.721 c 5.09,11.22 10.405,22.505 15.94,33.857 z"
           style="fill:#ea442f;fill-opacity:1;fill-rule:nonzero;stroke:none"
           id="path4074"
           inkscape:connector-curvature="0" /><path
           d="m 600,0.242 h -1.166 c 0.387,0.885 0.775,1.771 1.166,2.656 z"
           style="fill:#d39c66;fill-opacity:1;fill-rule:nonzero;stroke:none"
           id="path4076"
           inkscape:connector-curvature="0" /></g></g></g></svg>