<?xml version="1.0" encoding="UTF-8"?>
<svg xmlns="http://www.w3.org/2000/svg" xmlns:xlink="http://www.w3.org/1999/xlink" width="200px" height="206px" viewBox="0 0 200 206" version="1.1">
<g id="surface1">
<path style="fill-rule:nonzero;fill:rgb(0%,0%,0%);fill-opacity:1;stroke-width:37.395302;stroke-linecap:butt;stroke-linejoin:miter;stroke:rgb(0%,0%,0%);stroke-opacity:1;stroke-miterlimit:4;" d="M 323.206875 324.22943 C 326.041875 300.629596 325.189688 297.165246 342.765 300.984481 L 347.228438 301.381614 C 360.745313 301.998437 378.430313 299.210058 388.816875 294.376866 C 411.17625 284.000713 424.44 266.678959 402.392813 271.233313 C 352.096875 281.609466 348.6375 264.575 348.6375 264.575 C 401.743125 185.773695 423.950625 85.738456 404.780625 61.251411 C 352.510312 -5.534512 262.035 26.050228 260.524688 26.869842 L 260.04375 26.954339 C 250.104375 24.892627 238.98375 23.66743 226.487813 23.464639 C 203.723438 23.084405 186.451875 29.430082 173.356875 39.366854 C 173.356875 39.366854 11.9475 -27.131781 19.456875 122.9929 C 21.051563 154.932524 65.230313 364.652488 117.9225 301.305567 C 137.185313 278.145115 155.798438 258.558859 155.798438 258.558859 C 165.0375 264.693295 176.099063 267.82811 187.709063 266.704308 L 188.603438 265.935391 C 188.325 268.816717 188.443125 271.630446 188.96625 274.959603 C 175.390313 290.126699 179.38125 292.788334 152.237813 298.373544 C 124.782188 304.0348 140.914688 314.106766 151.444688 316.743052 C 164.210625 319.937015 193.750313 324.45757 213.713438 296.514624 L 212.911875 299.700137 C 218.244375 303.967203 217.881563 330.321617 218.6325 349.155856 C 219.391875 367.990094 220.649063 385.565337 224.488125 395.92459 C 228.327188 406.283844 232.858125 432.976244 268.531875 425.329323 C 298.333125 418.941399 321.13125 409.748195 323.206875 324.22943 " transform="matrix(0.462963,0,0,0.462298,0,0)"/>
<path style=" stroke:none;fill-rule:nonzero;fill:rgb(20%,40.392157%,56.862748%);fill-opacity:1;" d="M 186.292969 125.390625 C 163.007812 130.1875 161.40625 122.3125 161.40625 122.3125 C 185.992188 85.878906 196.273438 39.632812 187.402344 28.316406 C 163.203125 -2.558594 121.3125 12.042969 120.613281 12.421875 L 120.390625 12.460938 C 115.789062 11.507812 110.640625 10.941406 104.851562 10.84375 C 94.3125 10.671875 86.320312 13.605469 80.257812 18.195312 C 80.257812 18.195312 5.527344 -12.542969 9.003906 56.859375 C 9.742188 71.625 30.195312 168.578125 54.59375 139.292969 C 63.507812 128.585938 72.125 119.53125 72.125 119.53125 C 76.402344 122.367188 81.527344 123.816406 86.898438 123.296875 L 87.3125 122.941406 C 87.183594 124.273438 87.242188 125.574219 87.480469 127.113281 C 81.195312 134.125 83.042969 135.355469 70.480469 137.9375 C 57.765625 140.554688 65.234375 145.210938 70.109375 146.429688 C 76.023438 147.90625 89.699219 149.996094 98.9375 137.078125 L 98.570312 138.550781 C 101.03125 140.523438 102.761719 151.363281 102.472656 161.191406 C 102.179688 171.019531 101.988281 177.765625 103.929688 183.035156 C 105.867188 188.304688 107.800781 200.164062 124.316406 196.628906 C 138.117188 193.675781 145.269531 186.023438 146.265625 173.257812 C 146.972656 164.183594 148.570312 165.523438 148.667969 157.410156 L 149.949219 153.570312 C 151.429688 141.269531 150.1875 137.300781 158.6875 139.144531 L 160.753906 139.328125 C 167.011719 139.609375 175.203125 138.320312 180.007812 136.089844 C 190.359375 131.292969 196.5 123.285156 186.292969 125.390625 Z M 186.292969 125.390625 "/>
<path style="fill:none;stroke-width:12.4651;stroke-linecap:round;stroke-linejoin:round;stroke:rgb(100%,100%,100%);stroke-opacity:1;stroke-miterlimit:4;" d="M 215.865 286.484906 C 214.48125 335.999772 216.210938 385.861074 221.0625 397.977852 C 225.905625 410.09463 236.28375 433.669114 271.9575 426.022194 C 301.767188 419.634269 312.609375 407.264002 317.3175 379.971678 C 320.785313 359.886893 327.467813 304.119296 328.32 292.695388 " transform="matrix(0.462963,0,0,0.462298,0,0)"/>
<path style="fill:none;stroke-width:12.4651;stroke-linecap:round;stroke-linejoin:round;stroke:rgb(100%,100%,100%);stroke-opacity:1;stroke-miterlimit:4;" d="M 173.10375 38.259951 C 173.10375 38.259951 11.584688 -27.757054 19.094062 122.367627 C 20.68875 154.298802 64.8675 364.027215 117.568125 300.680294 C 136.8225 277.511393 154.2375 259.344675 154.2375 259.344675 " transform="matrix(0.462963,0,0,0.462298,0,0)"/>
<path style="fill:none;stroke-width:12.4651;stroke-linecap:round;stroke-linejoin:round;stroke:rgb(100%,100%,100%);stroke-opacity:1;stroke-miterlimit:4;" d="M 260.3475 26.210771 C 254.761875 27.959845 350.198438 -8.677776 404.434688 60.626138 C 423.59625 85.104733 401.397188 185.139973 348.283125 263.949727 " transform="matrix(0.462963,0,0,0.462298,0,0)"/>
<path style="fill:none;stroke-width:12.4651;stroke-linecap:round;stroke-linejoin:bevel;stroke:rgb(100%,100%,100%);stroke-opacity:1;stroke-miterlimit:4;" d="M 348.283125 263.949727 C 348.283125 263.949727 351.7425 280.992643 402.046875 270.60804 C 424.085625 266.053686 410.821875 283.38389 388.470938 293.760042 C 370.127813 302.277275 328.995 304.457282 328.32 292.695388 C 326.590313 262.335846 349.970625 271.562849 348.283125 263.949727 C 346.755938 257.105522 336.301875 250.379612 329.391563 233.615534 C 323.350313 218.980765 246.594375 106.7696 350.679375 123.432282 C 354.493125 122.646465 323.5275 24.427897 226.125 22.830916 C 128.739375 21.233935 131.937188 142.596056 131.937188 142.596056 " transform="matrix(0.462963,0,0,0.462298,0,0)"/>
<path style="fill:none;stroke-width:12.4651;stroke-linecap:round;stroke-linejoin:round;stroke:rgb(100%,100%,100%);stroke-opacity:1;stroke-miterlimit:4;" d="M 188.603438 274.334329 C 175.0275 289.501426 179.018438 292.163061 151.883438 297.748271 C 124.419375 303.409527 140.551875 313.481493 151.081875 316.117779 C 163.847813 319.311742 193.3875 323.832297 213.350625 295.889351 C 219.425625 287.380567 213.316875 273.802002 204.96375 270.337652 C 200.930625 268.673073 195.539062 266.577564 188.603438 274.334329 Z M 188.603438 274.334329 " transform="matrix(0.462963,0,0,0.462298,0,0)"/>
<path style="fill:none;stroke-width:12.4651;stroke-linecap:round;stroke-linejoin:round;stroke:rgb(100%,100%,100%);stroke-opacity:1;stroke-miterlimit:4;" d="M 187.7175 274.072391 C 186.350625 265.149575 190.645313 254.536833 195.252188 242.124317 C 202.170938 223.50132 218.143125 204.869873 205.36875 145.790018 C 195.842813 101.758965 131.970938 136.622163 131.92875 142.596056 C 131.895 148.561499 134.822812 172.854202 130.865625 201.143583 C 125.701875 238.060042 154.355625 269.272998 187.34625 266.079035 " transform="matrix(0.462963,0,0,0.462298,0,0)"/>
<path style="fill-rule:nonzero;fill:rgb(100%,100%,100%);fill-opacity:1;stroke-width:4.155;stroke-linecap:butt;stroke-linejoin:miter;stroke:rgb(100%,100%,100%);stroke-opacity:1;stroke-miterlimit:4;" d="M 172.513125 141.700394 C 172.22625 143.736757 176.250938 149.178322 181.490625 149.904991 C 186.730313 150.640109 191.210625 146.381493 191.489063 144.34513 C 191.775938 142.308768 187.759688 140.061165 182.511563 139.334496 C 177.280313 138.599378 172.791562 139.664032 172.521563 141.700394 Z M 172.513125 141.700394 " transform="matrix(0.462963,0,0,0.462298,0,0)"/>
<path style="fill-rule:nonzero;fill:rgb(100%,100%,100%);fill-opacity:1;stroke-width:2.0775;stroke-linecap:butt;stroke-linejoin:miter;stroke:rgb(100%,100%,100%);stroke-opacity:1;stroke-miterlimit:4;" d="M 331.939688 137.543174 C 332.226562 139.579536 328.210313 145.021101 322.962188 145.74777 C 317.730938 146.482888 313.250625 142.224272 312.96375 140.18791 C 312.685313 138.151547 316.701563 135.903944 321.94125 135.177275 C 327.180938 134.442157 331.652813 135.506811 331.939688 137.543174 Z M 331.939688 137.543174 " transform="matrix(0.462963,0,0,0.462298,0,0)"/>
<path style="fill:none;stroke-width:12.4651;stroke-linecap:round;stroke-linejoin:round;stroke:rgb(100%,100%,100%);stroke-opacity:1;stroke-miterlimit:4;" d="M 350.679375 123.432282 C 351.54 139.427442 347.228438 150.319023 346.688438 167.345039 C 345.886875 192.094023 358.484063 220.417203 339.499688 248.78263 " transform="matrix(0.462963,0,0,0.462298,0,0)"/>
</g>
</svg>
